<mxfile host="app.diagrams.net" modified="2024-07-13T03:22:18.393Z" agent="Mozilla/5.0 (Macintosh; Intel Mac OS X 10_15_7) AppleWebKit/537.36 (KHTML, like Gecko) Chrome/126.0.0.0 Safari/537.36" version="24.2.0" etag="bFY8dmA5Bj3IYmLcqzqJ" type="github">
  <diagram name="第 1 页" id="Pl_XQaMXIA-gMOXD43zL">
    <mxGraphModel>
      <root>
        <mxCell id="0" />
        <mxCell id="1" parent="0" />
      </root>
    </mxGraphModel>
  </diagram>
</mxfile>
